<?xml version="1.0" standalone="no"?>
<!DOCTYPE svg PUBLIC "-//W3C//DTD SVG 20010904//EN"
 "http://www.w3.org/TR/2001/REC-SVG-20010904/DTD/svg10.dtd">
<svg version="1.0" xmlns="http://www.w3.org/2000/svg"
 width="736.000000pt" height="460.000000pt" viewBox="0 0 736.000000 460.000000"
 preserveAspectRatio="xMidYMid meet">

<g transform="translate(0.000000,460.000000) scale(0.100000,-0.100000)"
fill="#000000" stroke="none">
<path d="M4442 4208 c-19 -19 -14 -67 10 -109 12 -22 25 -39 29 -39 18 0 120
-140 159 -218 23 -46 53 -127 68 -180 23 -85 26 -117 26 -262 1 -148 -1 -173
-23 -237 -36 -112 -108 -167 -173 -132 -38 20 -48 68 -48 234 0 182 -11 242
-48 256 -77 30 -144 -133 -159 -386 -8 -154 15 -266 108 -510 17 -44 23 -81
22 -140 0 -111 -27 -179 -102 -254 -94 -94 -325 -197 -495 -222 -37 -5 -72
-12 -77 -14 -12 -8 -218 -9 -279 -1 -30 4 -77 11 -105 17 -27 5 -59 11 -71 13
-50 10 -210 71 -242 92 -19 13 -39 24 -45 24 -5 0 -35 17 -66 38 -30 20 -61
39 -67 42 -13 5 -126 102 -159 136 -48 49 -120 137 -141 172 -65 107 -115 204
-139 267 -31 82 -75 257 -75 300 -1 28 -1 29 -13 10 -8 -14 -12 -83 -12 -235
0 -192 3 -225 24 -310 132 -535 536 -918 1074 -1016 125 -23 352 -23 472 0
269 51 471 154 659 336 311 300 480 789 463 1334 -6 174 -13 223 -52 366 -23
85 -91 229 -150 322 -102 157 -333 346 -373 306z"/>
<path d="M3305 3990 c-142 -15 -280 -69 -415 -166 -233 -167 -368 -439 -370
-746 0 -38 4 -68 9 -68 4 0 6 -11 3 -25 -2 -13 -1 -33 3 -42 5 -10 7 -23 6
-30 -4 -25 41 -153 52 -146 6 3 7 1 3 -6 -9 -14 2 -53 14 -46 4 3 10 -2 14
-10 3 -8 0 -15 -7 -16 -7 0 -2 -4 10 -9 12 -5 25 -21 29 -35 3 -14 11 -25 16
-25 6 0 8 -7 5 -14 -4 -11 -1 -13 11 -9 15 6 16 5 2 -12 -9 -11 -10 -16 -2
-11 7 4 12 1 12 -8 0 -9 7 -16 15 -16 8 0 15 -9 15 -19 0 -11 5 -23 12 -27 7
-5 8 -3 3 7 -8 12 -6 12 8 0 9 -7 14 -18 11 -23 -8 -13 35 -58 56 -58 9 0 27
-12 41 -27 l24 -27 -35 23 -35 23 29 -25 c16 -14 35 -23 41 -21 7 3 15 -5 18
-17 4 -14 11 -20 21 -16 9 4 15 2 13 -4 -1 -5 23 -24 53 -40 30 -17 55 -30 55
-29 0 1 25 -9 55 -23 30 -14 69 -28 85 -32 l30 -6 -25 18 c-14 10 -38 31 -54
48 -16 16 -26 23 -21 15 4 -8 -7 1 -25 20 -77 83 -126 138 -135 152 -5 8 -23
35 -39 59 -68 102 -126 302 -126 433 1 247 125 508 311 654 80 63 229 139 300
154 38 8 54 15 46 21 -7 5 4 6 28 2 22 -3 47 0 55 6 12 8 10 9 -10 4 -22 -5
-23 -5 -7 6 14 8 22 8 30 0 14 -14 40 -15 32 -1 -3 6 -1 10 4 10 6 0 11 -4 11
-10 0 -5 5 -10 11 -10 5 0 7 5 4 11 -11 17 125 2 145 -16 9 -8 23 -15 31 -14
8 0 6 4 -6 9 -15 7 -9 9 25 9 25 1 55 -6 67 -14 12 -8 30 -16 41 -18 11 -2 27
-9 36 -16 9 -7 16 -11 16 -7 0 4 11 -1 25 -10 14 -9 23 -19 20 -23 -2 -4 10
-16 28 -26 18 -10 52 -34 77 -54 l45 -36 -35 49 c-179 252 -491 388 -815 356z
m-515 -1515 c11 -13 10 -14 -4 -9 -9 3 -16 10 -16 15 0 13 6 11 20 -6z m220
-171 c0 -2 -13 2 -30 11 -16 9 -30 18 -30 21 0 2 14 -2 30 -11 17 -9 30 -18
30 -21z"/>
<path d="M4357 3983 c-12 -11 -7 -64 8 -96 8 -18 36 -52 61 -77 125 -122 212
-332 230 -556 l7 -89 14 50 c57 218 -13 580 -130 676 -89 73 -170 113 -190 92z"/>
<path d="M3830 3770 c-13 -8 -12 -10 3 -10 9 0 17 5 17 10 0 12 -1 12 -20 0z"/>
<path d="M3253 3305 c-107 -49 -183 -169 -183 -288 1 -112 102 -287 252 -437
86 -87 261 -236 320 -275 l28 -17 77 58 c116 88 341 317 400 406 75 113 97
176 97 273 0 97 -23 152 -93 221 -61 61 -116 83 -208 83 -112 1 -200 -48 -261
-143 -24 -38 -25 -39 -33 -18 -5 12 -30 44 -57 71 -90 90 -230 117 -339 66z"/>
<path d="M3031 1301 c-23 -6 -24 -9 -22 -95 2 -73 0 -88 -11 -79 -18 14 -90
26 -97 16 -3 -5 -19 -17 -34 -27 -82 -52 -88 -210 -11 -281 32 -30 106 -35
142 -9 20 14 23 14 28 0 4 -11 19 -16 46 -16 33 0 38 3 34 18 -3 9 -6 118 -7
242 -2 147 -6 228 -13 232 -13 9 -22 9 -55 -1z m-41 -241 c16 -16 20 -33 20
-95 0 -69 -2 -76 -22 -84 -13 -5 -27 -5 -33 0 -5 5 -17 9 -26 9 -21 0 -29 22
-34 89 -7 82 48 128 95 81z"/>
<path d="M3927 1303 c-14 -4 -17 -11 -13 -26 3 -12 6 -120 6 -239 l0 -218 40
0 c31 0 40 4 42 18 0 9 1 117 2 239 1 233 1 235 -42 232 -9 -1 -25 -3 -35 -6z"/>
<path d="M3180 1280 c-24 -24 -26 -53 -4 -74 37 -38 92 -3 84 54 -2 16 -29 39
-47 40 -7 0 -22 -9 -33 -20z"/>
<path d="M4369 1291 c-58 -12 -102 -44 -135 -99 -64 -106 -50 -247 33 -323 39
-37 62 -47 120 -55 34 -4 67 -1 104 10 81 24 84 27 64 69 l-17 37 -42 -24
c-36 -20 -50 -23 -85 -16 -43 8 -94 46 -87 64 2 6 -4 19 -13 30 -20 23 -20
131 1 172 31 64 112 86 176 49 31 -18 31 -18 51 6 25 30 25 32 2 53 -26 24
-115 38 -172 27z"/>
<path d="M2022 1280 c-18 -4 -34 -9 -35 -11 -1 -2 -1 -106 1 -231 l3 -228 32
0 c30 0 33 3 43 47 8 32 8 74 2 131 -17 151 -8 150 55 -11 31 -81 57 -152 57
-158 0 -17 57 -10 64 9 3 9 28 80 55 157 l50 140 0 -96 c1 -53 4 -124 7 -158
l7 -61 38 0 c30 0 39 4 45 23 9 27 8 408 -1 436 -5 18 -13 20 -48 17 -23 -2
-49 -7 -57 -10 -8 -4 -33 -57 -54 -119 -22 -61 -47 -130 -57 -152 l-17 -40 0
42 c0 25 -6 48 -15 57 -8 9 -18 30 -22 48 -8 39 -23 77 -51 132 -22 44 -41 51
-102 36z"/>
<path d="M2584 1134 c-45 -24 -62 -43 -80 -90 -33 -86 -8 -179 58 -219 48 -28
198 -16 198 17 0 36 -49 64 -65 38 -17 -27 -105 3 -105 36 0 8 -4 14 -10 14
-5 0 -10 7 -10 15 0 12 17 15 94 15 108 0 114 5 102 85 -12 80 -108 127 -182
89z m84 -66 c16 -16 15 -48 0 -49 -28 -2 -73 3 -80 10 -4 4 -1 17 8 29 17 24
53 29 72 10z"/>
<path d="M3430 1143 c-35 -7 -87 -48 -106 -86 -38 -72 -12 -190 50 -228 55
-34 206 -17 190 21 -3 8 -7 20 -8 27 -4 23 -14 25 -39 8 -52 -33 -106 5 -114
80 -9 87 33 134 94 106 21 -10 29 -9 44 5 26 24 24 37 -10 57 -29 17 -51 19
-101 10z"/>
<path d="M3649 1124 l-50 -23 17 -26 c19 -29 22 -30 48 -10 27 20 82 19 90 -1
15 -40 0 -84 -19 -54 -4 7 -12 7 -24 0 -10 -5 -21 -6 -25 -3 -3 3 -6 1 -6 -5
0 -7 -7 -12 -16 -12 -8 0 -29 -13 -45 -29 -59 -60 -24 -151 58 -151 21 0 51 7
67 15 26 14 31 14 47 -1 27 -24 104 -8 104 21 0 27 -14 45 -35 45 -11 0 -17 8
-17 28 -2 147 -4 172 -18 185 -8 8 -12 17 -9 20 6 6 -42 19 -84 22 -18 1 -55
-8 -83 -21z m111 -193 c0 -34 -26 -51 -60 -40 -36 13 -30 35 14 48 45 13 46
13 46 -8z"/>
<path d="M4690 1141 c-38 -8 -80 -31 -80 -44 0 -4 5 -16 12 -26 11 -19 12 -19
47 0 59 32 91 20 91 -33 0 -24 -4 -28 -28 -28 -42 0 -115 -41 -130 -73 -18
-37 -7 -84 26 -105 31 -20 93 -20 126 1 22 15 25 15 37 1 10 -12 25 -15 57
-11 52 6 56 9 48 42 -5 20 -11 25 -26 20 -16 -5 -20 -2 -21 17 0 13 -3 40 -5
61 -3 23 -1 36 5 33 6 -4 6 6 0 26 -4 18 -11 45 -13 59 -10 48 -76 75 -146 60z
m70 -210 c0 -26 -25 -50 -47 -46 -10 2 -21 4 -25 4 -15 2 -8 40 10 50 30 18
62 13 62 -8z"/>
<path d="M4942 1142 c-32 -3 -33 -5 -26 -35 9 -37 10 -57 12 -189 l2 -98 34 0
c43 0 48 12 45 113 -2 69 1 80 21 102 13 14 31 25 41 25 10 0 21 10 24 23 4
12 9 30 11 40 10 34 -71 12 -98 -27 -4 -6 -8 -2 -8 10 0 29 -18 40 -58 36z"/>
<path d="M5202 1134 c-52 -27 -74 -67 -79 -143 -5 -76 14 -117 69 -151 37 -22
116 -27 167 -9 36 13 38 19 12 50 -14 18 -22 21 -32 12 -21 -17 -73 -22 -90
-9 -18 14 -49 62 -49 76 0 6 35 10 90 10 87 0 91 1 102 25 14 32 -5 95 -38
126 -31 29 -107 36 -152 13z m96 -56 c16 -16 15 -58 0 -58 -36 0 -88 14 -88
23 0 36 63 60 88 35z"/>
<path d="M3185 1131 c-19 -8 -20 -15 -15 -162 l5 -154 37 -3 c33 -3 37 0 42
25 4 23 2 269 -3 296 -1 9 -40 8 -66 -2z"/>
<path d="M3097 662 c-21 -3 -27 -8 -23 -19 3 -8 6 -53 6 -99 l0 -84 55 0 c39
0 55 4 55 13 0 9 -13 13 -40 12 -39 -1 -40 -1 -40 32 0 31 2 33 36 33 45 0 42
24 -4 28 -26 3 -32 8 -32 28 0 20 6 25 40 30 22 4 40 10 40 14 0 9 -54 16 -93
12z"/>
<path d="M3283 662 c-7 -4 -24 -45 -38 -92 -15 -46 -29 -90 -32 -97 -3 -7 0
-13 6 -13 6 0 17 16 26 36 12 30 19 35 42 32 20 -2 32 -12 42 -35 13 -30 49
-49 38 -20 -8 21 -36 122 -36 130 -1 8 -30 67 -34 67 -1 0 -7 -4 -14 -8z m10
-110 c-22 -5 -26 4 -18 35 l8 28 12 -30 c11 -26 11 -30 -2 -33z"/>
<path d="M3401 661 c-9 -6 -12 -34 -9 -102 l3 -94 58 -3 c34 -2 57 1 57 7 0
13 -45 25 -65 17 -12 -4 -15 5 -16 47 -1 29 -1 68 0 88 3 39 -7 53 -28 40z"/>
<path d="M3537 662 c-26 -5 -20 -22 8 -22 25 0 25 -1 25 -84 0 -78 10 -110 28
-91 4 3 7 43 7 88 0 82 0 82 28 85 16 2 27 9 27 18 0 12 -11 14 -53 12 -28 -2
-60 -4 -70 -6z"/>
<path d="M3978 652 c-79 -48 -46 -192 43 -192 37 0 59 9 59 25 0 10 -10 12
-35 8 -50 -8 -75 17 -75 73 0 57 21 78 72 70 41 -7 51 6 19 24 -28 14 -52 12
-83 -8z"/>
<path d="M4131 578 c-17 -51 -31 -99 -31 -105 0 -26 19 -12 30 22 10 31 16 35
44 35 29 0 34 -4 42 -32 11 -36 34 -50 34 -20 0 11 -7 39 -15 63 -9 24 -16 55
-18 69 -2 28 -25 60 -43 60 -6 0 -25 -42 -43 -92z m58 -15 c1 -18 -18 -16 -25
2 -4 8 -3 23 1 33 7 16 8 15 15 -3 5 -11 9 -26 9 -32z"/>
<path d="M4292 662 c-18 -12 -13 -194 6 -200 8 -2 12 10 12 42 0 60 25 63 58
6 28 -49 57 -56 41 -11 -6 17 -17 35 -24 41 -12 10 -11 15 5 33 39 41 17 86
-45 93 -22 3 -46 1 -53 -4z m76 -54 c2 -20 -1 -28 -12 -28 -30 0 -46 13 -46
37 0 21 4 24 28 21 21 -2 28 -9 30 -30z"/>
<path d="M4440 570 l0 -100 60 0 c33 0 60 4 60 10 0 6 -21 10 -46 10 -45 0
-45 0 -42 32 3 26 8 32 33 35 50 7 49 21 -1 25 -25 2 -30 7 -32 29 -2 26 1 28
40 31 61 4 49 22 -17 26 l-55 3 0 -101z"/>
<path d="M2884 629 c3 -17 6 -62 6 -100 0 -56 3 -69 16 -69 12 0 15 9 12 43
l-3 42 48 3 47 3 0 -45 c0 -33 4 -46 14 -46 11 0 14 20 13 97 -2 82 -5 98 -18
101 -13 2 -17 -6 -17 -39 -1 -22 -2 -42 -4 -44 -2 -1 -20 0 -40 3 -37 4 -38 6
-38 43 0 33 -3 39 -21 39 -19 0 -21 -4 -15 -31z"/>
<path d="M3684 644 c3 -9 6 -54 6 -100 0 -68 3 -84 15 -84 11 0 15 12 15 44
l0 44 41 4 c22 2 42 2 45 -1 2 -2 4 -24 4 -48 0 -32 4 -43 15 -43 12 0 15 18
15 100 0 82 -3 100 -15 100 -11 0 -15 -11 -15 -40 l0 -40 -45 0 -45 0 0 40 c0
34 -3 40 -21 40 -15 0 -19 -4 -15 -16z"/>
</g>
</svg>
